<!-- Generated by IcoMoon.io -->
<svg version="1.1" xmlns="http://www.w3.org/2000/svg" width="115" height="32" viewBox="0 0 115 32">
<title>Btn</title>
<path fill="#2196f3" d="M4.414 0h105.931c1.219 0 2.207 0.988 2.207 2.207v23.172c0 1.219-0.988 2.207-2.207 2.207h-105.931c-1.219 0-2.207-0.988-2.207-2.207v-23.172c0-1.219 0.988-2.207 2.207-2.207z"></path>
<path fill="#fff" d="M48.051 13.832h-2.483v1.681h2.914v1.039h-4.207v-6.276h4.199v1.047h-2.905v1.496h2.483v1.013zM50.835 11.888l0.039 0.538c0.334-0.417 0.781-0.625 1.341-0.625 0.494 0 0.862 0.145 1.103 0.435s0.365 0.724 0.371 1.302v3.012h-1.246v-2.983c0-0.265-0.057-0.456-0.172-0.574-0.115-0.12-0.306-0.18-0.574-0.18-0.35 0-0.613 0.149-0.789 0.448v3.289h-1.245v-4.664h1.172zM56.912 15.030l0.866-3.142h1.302l-1.574 4.664h-1.19l-1.574-4.664h1.302l0.866 3.142zM61.476 16.552h-1.25v-4.664h1.25v4.664zM60.153 10.681c0-0.188 0.062-0.341 0.185-0.462 0.126-0.12 0.297-0.181 0.513-0.181 0.213 0 0.382 0.061 0.509 0.181 0.127 0.121 0.19 0.275 0.19 0.461 0 0.19-0.065 0.345-0.194 0.466-0.127 0.121-0.295 0.181-0.505 0.181s-0.379-0.061-0.508-0.181c-0.127-0.121-0.19-0.276-0.19-0.466zM65.738 16.552c-0.060-0.121-0.104-0.262-0.124-0.411l-0.001-0.007c-0.301 0.337-0.694 0.504-1.176 0.504-0.457 0-0.836-0.132-1.138-0.396-0.275-0.236-0.448-0.584-0.448-0.972 0-0.010 0-0.020 0-0.030v0.001c0-0.494 0.182-0.873 0.547-1.138 0.367-0.264 0.898-0.397 1.591-0.401h0.573v-0.267c0-0.216-0.056-0.388-0.168-0.518-0.109-0.129-0.283-0.194-0.521-0.194-0.21 0-0.375 0.051-0.496 0.151-0.118 0.1-0.177 0.238-0.177 0.414h-1.246c0-0.27 0.083-0.52 0.25-0.75s0.402-0.409 0.707-0.538c0.305-0.132 0.647-0.199 1.026-0.199 0.574 0 1.030 0.146 1.366 0.436 0.339 0.287 0.509 0.692 0.509 1.215v2.022c0.003 0.442 0.065 0.777 0.185 1.004v0.073h-1.258zM64.708 15.686c0.184 0 0.353-0.040 0.509-0.121 0.146-0.075 0.264-0.189 0.343-0.327l0.002-0.004v-0.802h-0.466c-0.623 0-0.956 0.215-0.996 0.647l-0.004 0.073c0 0.155 0.055 0.283 0.164 0.383s0.259 0.151 0.449 0.151zM70.919 13.056c-0.134-0.020-0.289-0.033-0.447-0.034h-0.002c-0.471 0-0.78 0.159-0.927 0.478v3.052h-1.245v-4.664h1.176l0.035 0.556c0.25-0.428 0.596-0.642 1.039-0.642 0.138 0 0.267 0.019 0.388 0.056l-0.017 1.198z"></path>
</svg>
