<!-- Generated by IcoMoon.io -->
<svg version="1.1" xmlns="http://www.w3.org/2000/svg" width="142" height="32" viewBox="0 0 142 32">
<title>Grupo-1</title>
<path fill="#fff" d="M7.517 18.15c0-0.472-0.167-0.833-0.5-1.083-0.333-0.256-0.933-0.522-1.8-0.8-0.867-0.283-1.553-0.561-2.058-0.833-1.378-0.745-2.067-1.747-2.067-3.008 0-0.655 0.183-1.239 0.55-1.75 0.372-0.517 0.903-0.919 1.592-1.208 0.694-0.289 1.472-0.433 2.333-0.433 0.867 0 1.639 0.158 2.317 0.475 0.678 0.311 1.203 0.753 1.575 1.325 0.378 0.572 0.567 1.222 0.567 1.95h-2.5c0-0.556-0.175-0.986-0.525-1.292-0.35-0.311-0.842-0.467-1.475-0.467-0.611 0-1.086 0.131-1.425 0.392-0.339 0.256-0.508 0.594-0.508 1.017 0 0.394 0.197 0.725 0.592 0.992 0.4 0.267 0.986 0.517 1.758 0.75 1.422 0.428 2.458 0.958 3.108 1.592s0.975 1.422 0.975 2.367c0 1.050-0.397 1.875-1.192 2.475-0.794 0.594-1.864 0.892-3.208 0.892-0.933 0-1.783-0.169-2.55-0.508-0.767-0.344-1.353-0.814-1.758-1.408-0.4-0.594-0.6-1.283-0.6-2.067h2.508c0 1.339 0.8 2.008 2.4 2.008 0.594 0 1.058-0.119 1.392-0.358 0.333-0.244 0.5-0.583 0.5-1.017zM17.991 20.417c-0.594 0.722-1.417 1.083-2.467 1.083-0.967 0-1.706-0.278-2.217-0.833-0.505-0.556-0.764-1.369-0.775-2.442v-5.908h2.408v5.825c0 0.939 0.428 1.408 1.283 1.408 0.817 0 1.378-0.283 1.683-0.85v-6.383h2.417v9.017h-2.267l-0.067-0.917zM28.048 18.842c0-0.294-0.147-0.525-0.442-0.692-0.289-0.172-0.756-0.325-1.4-0.458-2.145-0.45-3.217-1.361-3.217-2.733 0-0.8 0.331-1.467 0.992-2 0.667-0.539 1.536-0.808 2.608-0.808 1.144 0 2.058 0.269 2.742 0.808 0.689 0.539 1.033 1.239 1.033 2.1h-2.408c0-0.344-0.111-0.628-0.333-0.85-0.222-0.228-0.57-0.342-1.042-0.342-0.406 0-0.719 0.092-0.942 0.275s-0.333 0.417-0.333 0.7c0 0.267 0.125 0.483 0.375 0.65 0.255 0.161 0.683 0.303 1.283 0.425 0.6 0.117 1.105 0.25 1.517 0.4 1.272 0.467 1.908 1.275 1.908 2.425 0 0.822-0.353 1.489-1.058 2-0.706 0.506-1.617 0.758-2.733 0.758-0.756 0-1.428-0.133-2.017-0.4-0.583-0.272-1.042-0.642-1.375-1.108-0.333-0.472-0.5-0.981-0.5-1.525h2.283c0.022 0.428 0.181 0.756 0.475 0.983s0.689 0.342 1.183 0.342c0.461 0 0.808-0.086 1.042-0.258 0.239-0.178 0.358-0.408 0.358-0.692zM36.722 19.558c0.444 0 0.806-0.122 1.083-0.367s0.422-0.57 0.433-0.975h2.258c-0.006 0.611-0.172 1.172-0.5 1.683-0.328 0.506-0.778 0.9-1.35 1.183-0.567 0.278-1.194 0.417-1.883 0.417-1.289 0-2.306-0.408-3.050-1.225-0.744-0.822-1.117-1.956-1.117-3.4v-0.158c0-1.389 0.37-2.497 1.108-3.325s1.753-1.242 3.042-1.242c1.128 0 2.031 0.322 2.708 0.967 0.683 0.639 1.031 1.492 1.042 2.558h-2.258c-0.011-0.467-0.156-0.844-0.433-1.133-0.278-0.294-0.644-0.442-1.1-0.442-0.561 0-0.986 0.206-1.275 0.617-0.283 0.406-0.425 1.067-0.425 1.983v0.25c0 0.928 0.142 1.594 0.425 2s0.714 0.608 1.292 0.608zM47.963 14.575c-0.328-0.044-0.617-0.067-0.867-0.067-0.911 0-1.508 0.308-1.792 0.925v5.9h-2.408v-9.017h2.275l0.067 1.075c0.483-0.828 1.153-1.242 2.008-1.242 0.267 0 0.517 0.036 0.75 0.108l-0.033 2.317zM52.754 21.333h-2.408v-9.017h2.408v9.017zM52.045 8.658h2.625l-2.308 2.583h-1.958l1.642-2.583zM63.986 16.908c0 1.444-0.308 2.572-0.925 3.383-0.617 0.806-1.478 1.208-2.583 1.208-0.978 0-1.758-0.375-2.342-1.125l-0.108 0.958h-2.167v-12.8h2.408v4.592c0.556-0.65 1.286-0.975 2.192-0.975 1.1 0 1.961 0.406 2.583 1.217 0.628 0.806 0.942 1.942 0.942 3.408v0.133zM61.578 16.733c0-0.911-0.145-1.575-0.433-1.992-0.289-0.422-0.719-0.633-1.292-0.633-0.767 0-1.294 0.314-1.583 0.942v3.558c0.294 0.633 0.828 0.95 1.6 0.95 0.778 0 1.289-0.383 1.533-1.15 0.117-0.367 0.175-0.925 0.175-1.675zM71.727 21.333c-0.111-0.217-0.192-0.486-0.242-0.808-0.583 0.65-1.342 0.975-2.275 0.975-0.883 0-1.617-0.255-2.2-0.767-0.578-0.511-0.867-1.156-0.867-1.933 0-0.956 0.353-1.689 1.058-2.2 0.711-0.511 1.736-0.77 3.075-0.775h1.108v-0.517c0-0.417-0.108-0.75-0.325-1-0.211-0.25-0.547-0.375-1.008-0.375-0.406 0-0.725 0.097-0.958 0.292-0.228 0.194-0.342 0.461-0.342 0.8h-2.408c0-0.522 0.161-1.006 0.483-1.45s0.778-0.792 1.367-1.042c0.589-0.256 1.25-0.383 1.983-0.383 1.111 0 1.992 0.281 2.642 0.842 0.656 0.556 0.983 1.339 0.983 2.35v3.908c0.006 0.856 0.125 1.503 0.358 1.942v0.142h-2.433zM69.735 19.658c0.356 0 0.683-0.078 0.983-0.233 0.3-0.161 0.522-0.375 0.667-0.642v-1.55h-0.9c-1.206 0-1.847 0.417-1.925 1.25l-0.008 0.142c0 0.3 0.106 0.547 0.317 0.742s0.5 0.292 0.867 0.292zM81.559 18.842c0-0.294-0.147-0.525-0.442-0.692-0.289-0.172-0.756-0.325-1.4-0.458-2.144-0.45-3.217-1.361-3.217-2.733 0-0.8 0.331-1.467 0.992-2 0.667-0.539 1.536-0.808 2.608-0.808 1.144 0 2.058 0.269 2.742 0.808 0.689 0.539 1.033 1.239 1.033 2.1h-2.408c0-0.344-0.111-0.628-0.333-0.85-0.222-0.228-0.569-0.342-1.042-0.342-0.406 0-0.719 0.092-0.942 0.275s-0.333 0.417-0.333 0.7c0 0.267 0.125 0.483 0.375 0.65 0.256 0.161 0.683 0.303 1.283 0.425 0.6 0.117 1.106 0.25 1.517 0.4 1.272 0.467 1.908 1.275 1.908 2.425 0 0.822-0.353 1.489-1.058 2-0.706 0.506-1.617 0.758-2.733 0.758-0.756 0-1.428-0.133-2.017-0.4-0.583-0.272-1.042-0.642-1.375-1.108-0.333-0.472-0.5-0.981-0.5-1.525h2.283c0.022 0.428 0.18 0.756 0.475 0.983s0.689 0.342 1.183 0.342c0.461 0 0.808-0.086 1.042-0.258 0.239-0.178 0.358-0.408 0.358-0.692zM90.633 21.5c-1.322 0-2.4-0.406-3.233-1.217-0.828-0.811-1.242-1.892-1.242-3.242v-0.233c0-0.905 0.175-1.714 0.525-2.425 0.35-0.717 0.844-1.267 1.483-1.65 0.644-0.389 1.378-0.583 2.2-0.583 1.233 0 2.203 0.389 2.908 1.167 0.711 0.778 1.067 1.881 1.067 3.308v0.983h-5.742c0.078 0.589 0.311 1.061 0.7 1.417 0.394 0.356 0.892 0.533 1.492 0.533 0.928 0 1.653-0.336 2.175-1.008l1.183 1.325c-0.361 0.511-0.85 0.911-1.467 1.2-0.617 0.283-1.3 0.425-2.050 0.425zM90.358 14.1c-0.478 0-0.867 0.161-1.167 0.483-0.294 0.322-0.483 0.783-0.567 1.383h3.35v-0.192c-0.011-0.533-0.156-0.945-0.433-1.233-0.278-0.294-0.672-0.442-1.183-0.442z"></path>
<path fill="#fff" d="M141.867 3.2l-25.6 14.4 8.181 3.030 12.619-11.83-9.598 12.949 0.007 0.003-0.010-0.003v7.051l4.588-5.353 5.812 2.153 4-22.4z"></path>
</svg>
